<?xml version="1.0" encoding="UTF-8"?><!DOCTYPE svg PUBLIC "-//W3C//DTD SVG 1.1//EN" "http://www.w3.org/Graphics/SVG/1.1/DTD/svg11.dtd"><svg xmlns="http://www.w3.org/2000/svg" xmlns:xlink="http://www.w3.org/1999/xlink"><symbol viewBox="0 0 24 24" id="activity" xmlns="http://www.w3.org/2000/svg"><path d="M11 19a1 1 0 0 1-2 0V8a1 1 0 1 1 2 0v11Zm-4 0a1 1 0 0 1-2 0v-7a1 1 0 0 1 2 0v7Zm6 0v-9a1 1 0 0 1 2 0v9a1 1 0 0 1-2 0Zm4-14a1 1 0 0 1 2 0v14a1 1 0 0 1-2 0V5Z" fill-rule="evenodd"/></symbol><symbol xml:space="preserve" viewBox="0 0 96.154 96.154" id="arrow-down" xmlns="http://www.w3.org/2000/svg"><path d="m.561 20.971 45.951 57.605c.76.951 2.367.951 3.127 0l45.956-57.609c.547-.689.709-1.716.414-2.61a2.686 2.686 0 0 0-.186-.437 2.004 2.004 0 0 0-1.765-1.056H2.093c-.736 0-1.414.405-1.762 1.056a2.62 2.62 0 0 0-.184.426c-.297.905-.136 1.934.414 2.625z"/></symbol><symbol viewBox="0 0 611.999 611.999" xml:space="preserve" id="notification" xmlns="http://www.w3.org/2000/svg"><path d="M570.107 500.254c-65.037-29.371-67.511-155.441-67.559-158.622v-84.578c0-81.402-49.742-151.399-120.427-181.203C381.969 34 347.883 0 306.001 0c-41.883 0-75.968 34.002-76.121 75.849-70.682 29.804-120.425 99.801-120.425 181.203v84.578c-.046 3.181-2.522 129.251-67.561 158.622a17.257 17.257 0 0 0 7.103 32.986h164.88c3.38 18.594 12.172 35.892 25.619 49.903 17.86 18.608 41.479 28.856 66.502 28.856 25.025 0 48.644-10.248 66.502-28.856 13.449-14.012 22.241-31.311 25.619-49.903h164.88a17.26 17.26 0 0 0 16.872-13.626 17.25 17.25 0 0 0-9.764-19.358zm-85.673-60.395c6.837 20.728 16.518 41.544 30.246 58.866H97.32c13.726-17.32 23.407-38.135 30.244-58.866h356.87zM306.001 34.515c18.945 0 34.963 12.73 39.975 30.082-12.912-2.678-26.282-4.09-39.975-4.09s-27.063 1.411-39.975 4.09c5.013-17.351 21.031-30.082 39.975-30.082zM143.97 341.736v-84.685c0-89.343 72.686-162.029 162.031-162.029s162.031 72.686 162.031 162.029v84.826c.023 2.596.427 29.879 7.303 63.465H136.663c6.88-33.618 7.286-60.949 7.307-63.606zm162.031 235.749c-26.341 0-49.33-18.992-56.709-44.246h113.416c-7.379 25.254-30.364 44.246-56.707 44.246z"/><path d="M306.001 119.235c-74.25 0-134.657 60.405-134.657 134.654 0 9.531 7.727 17.258 17.258 17.258 9.531 0 17.258-7.727 17.258-17.258 0-55.217 44.923-100.139 100.142-100.139 9.531 0 17.258-7.727 17.258-17.258-.001-9.532-7.728-17.257-17.259-17.257z"/></symbol><symbol viewBox="0 0 52 52" xml:space="preserve" id="plus" xmlns="http://www.w3.org/2000/svg"><path d="M26 0C11.664 0 0 11.663 0 26s11.664 26 26 26 26-11.663 26-26S40.336 0 26 0zm0 50C12.767 50 2 39.233 2 26S12.767 2 26 2s24 10.767 24 24-10.767 24-24 24z"/><path d="M38.5 25H27V14a1 1 0 1 0-2 0v11H13.5a1 1 0 1 0 0 2H25v12a1 1 0 1 0 2 0V27h11.5a1 1 0 1 0 0-2z"/></symbol><symbol xml:space="preserve" viewBox="0 0 100 100" id="recent" xmlns="http://www.w3.org/2000/svg"><path d="M28.1 48c-.1.7-.1 1.3-.1 2h-6c0-.7 0-1.3.1-2h6zM51.5 36h-3c-.8 0-1.5.7-1.5 1.5v13.1c0 .4.2.8.4 1.1l8.4 8.4c.6.6 1.5.6 2.1 0L60 58c.6-.6.6-1.5 0-2.1l-7-7.1V37.5c0-.8-.7-1.5-1.5-1.5z"/><path d="M50 22c-14.8 0-26.9 11.5-27.9 26 0 .3-.1.7-.1 1h-4.5c-1.3 0-2 1.5-1.2 2.4l7.5 9.1c.6.7 1.7.7 2.3 0l7.5-9.1c.8-1 .1-2.4-1.2-2.4H28v-1c1-11.2 10.5-20 21.9-20 13 0 23.3 11.3 21.9 24.5-1 9.5-10 18.5-19.6 19.4-7.1.7-13.8-1.9-18.5-7-.6-.7-1.4-1.1-2.2-.1l-2.4 2.9c-.5.6-.1 1 .4 1.5 5.4 5.7 12.8 8.9 20.8 8.8 14.4-.2 26.5-11.6 27.5-26C79.1 35.7 66.1 22 50 22z"/></symbol><symbol viewBox="0 0 487.95 487.95" xml:space="preserve" id="search" xmlns="http://www.w3.org/2000/svg"><path d="m481.8 453-140-140.1c27.6-33.1 44.2-75.4 44.2-121.6C386 85.9 299.5.2 193.1.2S0 86 0 191.4s86.5 191.1 192.9 191.1c45.2 0 86.8-15.5 119.8-41.4l140.5 140.5c8.2 8.2 20.4 8.2 28.6 0 8.2-8.2 8.2-20.4 0-28.6zM41 191.4c0-82.8 68.2-150.1 151.9-150.1s151.9 67.3 151.9 150.1-68.2 150.1-151.9 150.1S41 274.1 41 191.4z"/></symbol><symbol viewBox="0 0 463 463" id="task" xmlns="http://www.w3.org/2000/svg"><path d="M71.5 0C32.075 0 0 32.075 0 71.5S32.075 143 71.5 143 143 110.925 143 71.5 110.925 0 71.5 0zm0 128C40.346 128 15 102.654 15 71.5S40.346 15 71.5 15 128 40.346 128 71.5 102.654 128 71.5 128zM71.5 160C32.075 160 0 192.075 0 231.5S32.075 303 71.5 303s71.5-32.075 71.5-71.5S110.925 160 71.5 160zm0 128C40.346 288 15 262.654 15 231.5S40.346 175 71.5 175s56.5 25.346 56.5 56.5S102.654 288 71.5 288zM71.5 320C32.075 320 0 352.075 0 391.5S32.075 463 71.5 463s71.5-32.075 71.5-71.5S110.925 320 71.5 320zm0 128C40.346 448 15 422.654 15 391.5S40.346 335 71.5 335s56.5 25.346 56.5 56.5S102.654 448 71.5 448z"/><path d="M90.196 50.197 63.5 76.894 52.804 66.197a7.5 7.5 0 0 0-10.607 10.606l16 16C59.661 94.268 61.581 95 63.5 95s3.839-.732 5.304-2.197l32-32a7.5 7.5 0 0 0 0-10.606 7.502 7.502 0 0 0-10.608 0zM90.196 210.197 63.5 236.894l-10.696-10.697a7.5 7.5 0 0 0-10.607 10.606l16 16C59.661 254.268 61.581 255 63.5 255s3.839-.732 5.304-2.197l32-32a7.5 7.5 0 0 0 0-10.606 7.502 7.502 0 0 0-10.608 0zM175.5 55h144c4.143 0 7.5-3.358 7.5-7.5s-3.357-7.5-7.5-7.5h-144c-4.143 0-7.5 3.358-7.5 7.5s3.357 7.5 7.5 7.5zM175.5 103h280c4.143 0 7.5-3.358 7.5-7.5s-3.357-7.5-7.5-7.5h-280c-4.143 0-7.5 3.358-7.5 7.5s3.357 7.5 7.5 7.5zM175.5 215h144c4.143 0 7.5-3.358 7.5-7.5s-3.357-7.5-7.5-7.5h-144c-4.143 0-7.5 3.358-7.5 7.5s3.357 7.5 7.5 7.5zM455.5 248h-280c-4.143 0-7.5 3.358-7.5 7.5s3.357 7.5 7.5 7.5h280c4.143 0 7.5-3.358 7.5-7.5s-3.357-7.5-7.5-7.5zM175.5 375h144c4.143 0 7.5-3.358 7.5-7.5s-3.357-7.5-7.5-7.5h-144c-4.143 0-7.5 3.358-7.5 7.5s3.357 7.5 7.5 7.5zM455.5 408h-280c-4.143 0-7.5 3.358-7.5 7.5s3.357 7.5 7.5 7.5h280c4.143 0 7.5-3.358 7.5-7.5s-3.357-7.5-7.5-7.5z"/></symbol><symbol viewBox="0 0 512 512" xml:space="preserve" id="team" xmlns="http://www.w3.org/2000/svg"><path d="M159.978 220.073c0 27.829 10.137 56.011 27.811 77.321 18.586 22.409 42.849 34.751 68.318 34.751 25.466 0 49.699-12.335 68.237-34.732 17.616-21.284 27.719-49.455 27.719-77.291v-24.518c7.124-30.679 8.618-57.229 8.607-74.163-.015-21.864-2.393-36.97-4.613-43.816-1.179-3.637-4.716-5.846-8.372-5.492a8.038 8.038 0 0 0-1.85.041c-14.879 2.126-33.132-1.54-52.458-5.421-31.312-6.287-66.688-13.381-93.744 5.377a8.02 8.02 0 0 0-.731-.037c-15.185 0-28.667 6.068-37.963 17.086-8.587 10.178-13.316 24.181-13.316 39.43 0 24.975 10.624 71.13 12.354 78.481v12.983zm152.04 67.139c-15.442 18.658-35.299 28.934-55.911 28.934-20.623 0-40.512-10.287-56.003-28.965-15.333-18.487-24.126-42.947-24.126-67.107v-9.595c0-19.787 13.287-46.686 18.33-56.181 71.946-8.221 120.102 11.646 131.034 16.762l10.721 25.262v23.801c0 24.173-8.764 48.626-24.045 67.089zM198.903 88.093c.58 0 1.145-.065 1.69-.183a7.979 7.979 0 0 0 6.509-1.447c21.571-16.384 52.864-10.101 83.127-4.023 16.195 3.252 31.687 6.362 46.087 6.362 1.994 0 3.967-.06 5.919-.188 2.411 13.547 4.358 42.711-1.064 78.784l-2.259-5.322a8.004 8.004 0 0 0-3.525-3.894c-2.298-1.257-57.177-30.579-146.492-19.367a7.99 7.99 0 0 0-6.531 3.983c-.512.886-7.473 13.042-13.499 28.588-2.735-14.816-5.242-31.478-5.242-42.779.001-27.986 17.719-40.514 35.28-40.514z"/><path d="M393.884 349.856a8.412 8.412 0 0 0-.521-.127l-47.598-9.956-12.583-19.081a7.81 7.81 0 0 0-.278-.396 14.135 14.135 0 0 0-9.556-5.523 14.135 14.135 0 0 0-10.755 3.205L256 366.695l-56.594-48.716-.153-.129a14.136 14.136 0 0 0-10.601-3.077 14.133 14.133 0 0 0-9.556 5.523c-.097.129-.19.261-.278.396l-12.583 19.081-47.598 9.956a8.412 8.412 0 0 0-.521.127c-13.84 3.877-25.614 12.458-34.05 24.815-7.696 11.272-11.934 24.88-11.934 38.317v15.041c0 13.195 11.75 23.931 26.193 23.931h139.46l.03.001.033-.001h36.303l.033.001.03-.001h139.46c14.443 0 26.193-10.735 26.193-23.931v-15.041c0-13.438-4.238-27.045-11.934-38.317-8.434-12.356-20.209-20.937-34.049-24.815zm-72.643-18.209 9.932 15.06-39.749 54.654-23.671-23.67 53.488-46.044zm-70.489 88.379h10.496l3.187 15.935h-16.87l3.187-15.935zM264 399.643c0 2.634-1.605 4.382-2.667 4.382h-10.667c-1.062 0-2.667-1.748-2.667-4.382v-3.079l8-8 8 8v3.079zm-73.241-67.996 53.488 46.043-23.671 23.67-39.749-54.654 9.932-15.059zM88.131 428.029v-15.041c0-18.872 11.696-41.252 34.054-47.656l45.486-9.514 45.472 62.524a8 8 0 0 0 12.126.952l9.329-9.329c.423.782.888 1.532 1.4 2.242l-4.75 23.752H98.325c-5.526.001-10.194-3.631-10.194-7.93zm335.738 0c0 4.299-4.668 7.931-10.193 7.931H280.752l-4.75-23.752c.512-.71.977-1.46 1.4-2.242l9.329 9.329a7.999 7.999 0 0 0 12.126-.952l45.472-62.524 45.486 9.514c22.358 6.404 34.054 28.784 34.054 47.656v15.04zM64.165 235.079c0 19.437 6.614 37.677 18.623 51.361 12.189 13.889 28.467 21.538 45.834 21.538 13.021 0 25.557-4.346 36.254-12.567 3.503-2.692 4.16-7.715 1.467-11.218a8 8 0 0 0-11.218-1.468c-7.875 6.053-17.04 9.253-26.503 9.253-26.72 0-48.458-25.525-48.458-56.899v-4.702c0-12.644 5.229-29.382 7.969-37.288 17.266-1.53 32.684.734 45.276 2.594l1.427.21a8 8 0 0 0 2.331-15.83l-1.421-.209c-14.702-2.172-32.995-4.872-54.363-2.136-.025.003-.051.005-.076.009l-.009.001c-.028.003-.055.011-.083.015a7.854 7.854 0 0 0-.682.123c-.127.029-.249.068-.373.103-.123.035-.246.065-.367.105-.157.052-.308.114-.46.175-.085.035-.172.065-.257.103a7.364 7.364 0 0 0-.454.225c-.08.042-.161.08-.24.125-.137.077-.267.162-.399.247-.089.058-.179.112-.266.173-.11.078-.215.162-.32.244-.102.08-.205.157-.303.242-.084.072-.162.149-.242.225-.111.104-.222.207-.327.317-.065.069-.125.142-.188.212-.109.124-.219.246-.321.377-.06.076-.113.157-.17.235-.093.129-.188.257-.274.393-.071.111-.134.229-.199.344-.061.108-.126.212-.183.324a8.167 8.167 0 0 0-.295.654l-.025.056a.021.021 0 0 1-.003.007l-.021.055c-.139.357-.716 1.852-1.539 4.187-.639-5.087-1.058-9.878-1.058-13.716 0-17.291 8.344-25.031 16.614-25.031.391 0 .772-.037 1.148-.091.379.055.761.092 1.146.092a7.961 7.961 0 0 0 4.833-1.63c7.467-5.672 17.1-7.578 31.23-6.183 4.393.438 8.313-2.778 8.748-7.175a8 8 0 0 0-7.175-8.747c-10.842-1.071-26.535-1.355-40.191 7.742-19.061.154-32.352 16.977-32.352 41.024 0 16.848 6.642 47.553 7.915 53.283v8.517z"/><path d="M56 379.979H20.387c-2.511 0-4.387-1.502-4.387-2.846v-10.241c0-11.865 7.297-25.92 21.248-29.965l29.132-6.094 15.045 21.704a7.99 7.99 0 0 0 6.582 3.443 8 8 0 0 0 6.567-12.558L79.59 321.805l4.425-6.71 31.199 23.294a7.999 7.999 0 0 0 11.196-1.624 7.998 7.998 0 0 0-1.624-11.196l-34.243-25.566a12.192 12.192 0 0 0-8.966-2.513 12.185 12.185 0 0 0-8.241 4.763 7.81 7.81 0 0 0-.278.396l-7.988 12.113-31.376 6.563a8.412 8.412 0 0 0-.521.127C11.395 327.552 0 348.929 0 366.892v10.241c0 10.392 9.146 18.846 20.387 18.846H56a8 8 0 0 0 0-16zM375.84 131.977c11.762.235 24.766 2.34 37.343 4.375 9.502 1.537 18.604 2.996 26.508 3.504a571.796 571.796 0 0 1-2.931 49.697l-.049-.034a7.724 7.724 0 0 0-.387-.262c-.061-.039-.115-.083-.177-.12-.069-.042-.141-.081-.211-.123l-.028-.016c-16.009-9.642-35.411-15.205-59.31-16.997-4.41-.334-8.245 2.974-8.576 7.379a8 8 0 0 0 7.379 8.576c20.385 1.529 36.89 6.005 50.368 13.652 1.895 4.469 6.066 15.78 6.066 28.769v4.702c0 31.375-21.738 56.899-48.458 56.899-9.463 0-18.627-3.2-26.503-9.253a8 8 0 0 0-9.751 12.686c10.697 8.222 23.233 12.567 36.254 12.567 17.368 0 33.646-7.649 45.834-21.538 12.009-13.685 18.623-31.925 18.623-51.361v-8.646c1.124-5.98 7.729-43.222 7.906-92.444a7.993 7.993 0 0 0 .245-2.48c-.251-4.269-3.81-7.551-8.035-7.52-.067-.002-.133-.01-.201-.01-.155 0-.306.015-.459.023-7.742.402-19.308-1.464-31.553-3.445-12.511-2.024-26.691-4.319-39.578-4.576-4.446-.107-8.07 3.421-8.159 7.838a8.002 8.002 0 0 0 7.84 8.158zM478.828 321.451a8.412 8.412 0 0 0-.521-.127l-31.376-6.563-7.988-12.113a9.722 9.722 0 0 0-.278-.396 12.185 12.185 0 0 0-8.241-4.763 12.185 12.185 0 0 0-8.966 2.513l-34.243 25.566a7.998 7.998 0 0 0-1.624 11.196 7.998 7.998 0 0 0 11.196 1.624l31.199-23.294 4.425 6.71-14.985 21.616a8 8 0 0 0 13.149 9.115l15.045-21.704 29.132 6.094C488.702 340.97 496 355.026 496 366.89v10.241c0 1.343-1.876 2.846-4.387 2.846H456a8 8 0 0 0 0 16h35.613c11.241 0 20.387-8.454 20.387-18.846V366.89c0-17.961-11.395-39.338-33.172-45.439z"/></symbol></svg>